HIERARCHY
ROOT Hips
{
  OFFSET 56.4934 95.2255 -0.401949
  CHANNELS 6 Xposition Yposition Zposition Zrotation Xrotation Yrotation
  JOINT spine
  {
    OFFSET 0 7.96568 0.458067
    CHANNELS 3 Zrotation Xrotation Yrotation
    JOINT spine1
    {
      OFFSET 0 10.2431 0
      CHANNELS 3 Zrotation Xrotation Yrotation
      JOINT spine2
      {
        OFFSET 0 9.81475 0
        CHANNELS 3 Zrotation Xrotation Yrotation
        JOINT Neck
        {
          OFFSET 0 25.1986 1.20138
          CHANNELS 3 Zrotation Xrotation Yrotation
          JOINT Head
          {
            OFFSET 0 7.61315 0
            CHANNELS 3 Zrotation Xrotation Yrotation
            End Site
            {
              OFFSET 0 18.4281 -6.07733
            }
          }
        }
        JOINT RightShoulder
        {
          OFFSET -4.1327 10.5992 -0.575451
          CHANNELS 3 Zrotation Xrotation Yrotation
          JOINT RightArm
          {
            OFFSET 0 13.9018 0
            CHANNELS 3 Zrotation Xrotation Yrotation
            JOINT RightArmRoll
            {
              OFFSET 0 7.01789 0
              CHANNELS 3 Zrotation Xrotation Yrotation
              JOINT RightForeArm
              {
                OFFSET 0 20.4406 0
                CHANNELS 3 Zrotation Xrotation Yrotation
                JOINT RightForeArmRoll
                {
                  OFFSET 0 7.87515 0
                  CHANNELS 3 Zrotation Xrotation Yrotation
                  JOINT RightHand
                  {
                    OFFSET 0 15.8037 0
                    CHANNELS 3 Zrotation Xrotation Yrotation
                    End Site
                    {
                      OFFSET 0 0 0
                    }
                  }
                }
              }
            }
          }
        }
        JOINT LeftShoulder
        {
          OFFSET 4.1327 10.5992 -0.575451
          CHANNELS 3 Zrotation Xrotation Yrotation
          JOINT LeftArm
          {
            OFFSET 0 13.9018 0
            CHANNELS 3 Zrotation Xrotation Yrotation
            JOINT LeftArmRoll
            {
              OFFSET 0 7.01789 0
              CHANNELS 3 Zrotation Xrotation Yrotation
              JOINT LeftForeArm
              {
                OFFSET 0 20.4406 0
                CHANNELS 3 Zrotation Xrotation Yrotation
                JOINT LeftForeArmRoll
                {
                  OFFSET 0 7.87515 0
                  CHANNELS 3 Zrotation Xrotation Yrotation
                  JOINT LeftHand
                  {
                    OFFSET 0 15.8037 0
                    CHANNELS 3 Zrotation Xrotation Yrotation
                    End Site
                    {
                      OFFSET 0 0 0
                    }
                  }
                }
              }
            }
          }
        }
      }
    }
  }
  JOINT RightUpLeg
  {
    OFFSET -7.06048 -1.2947 -1.0861
    CHANNELS 3 Zrotation Xrotation Yrotation
    JOINT RightUpLegRoll
    {
      OFFSET 0 18.5308 0
      CHANNELS 3 Zrotation Xrotation Yrotation
      JOINT RightLeg
      {
        OFFSET 0 -22.9476 0
        CHANNELS 3 Zrotation Xrotation Yrotation
        JOINT RightLegRoll
        {
          OFFSET 0 23.0226 0
          CHANNELS 3 Zrotation Xrotation Yrotation
          JOINT RightFoot
          {
            OFFSET 0 19.1625 0
            CHANNELS 3 Zrotation Xrotation Yrotation
            JOINT RightToeBase
            {
              OFFSET 0 16.0188 0
              CHANNELS 3 Zrotation Xrotation Yrotation
              End Site
              {
                OFFSET 0.00678979 7.75782 -0.894206
              }
            }
          }
        }
      }
    }
  }
  JOINT LeftUpLeg
  {
    OFFSET 7.06048 -1.2947 -1.0861
    CHANNELS 3 Zrotation Xrotation Yrotation
    JOINT LeftUpLegRoll
    {
      OFFSET 0 18.5309 0
      CHANNELS 3 Zrotation Xrotation Yrotation
      JOINT LeftLeg
      {
        OFFSET 0 22.9475 0
        CHANNELS 3 Zrotation Xrotation Yrotation
        JOINT LeftLegRoll
        {
          OFFSET 0 23.2355 0
          CHANNELS 3 Zrotation Xrotation Yrotation
          JOINT LeftFoot
          {
            OFFSET 0 18.9496 0
            CHANNELS 3 Zrotation Xrotation Yrotation
            JOINT LeftToeBase
            {
              OFFSET 0 16.0188 0
              CHANNELS 3 Zrotation Xrotation Yrotation
              End Site
              {
                OFFSET -0.0304289 7.75781 -0.894207
              }
            }
          }
        }
      }
    }
  }
}
MOTION
Frames: 6
Frame Time: 0.00208333
42.4247 96.6134 -2.44141 1.15913 -3.29604 5.00821 -0.0182513 0.140884 -0.267602 -0.0323312 4.28294 -0.526239 -0.0260457 5.92799 -0.526316 -18.4542 -1.32377 -3.90036 12.4965 12.4439 -6.86358 61.9198 -4.2907 -2.88207 102.584 11.0831 -44.711 1.56578e-006 -8.10406e-007 4.8495e-006 24.8663 82.8721 -28.258 2.6569e-006 -5.07864e-006 -3.00971 8.03006 -4.95102 0.697541 -63.854 -4.45045 3.10737 -103.057 18.8395 38.1571 3.36317e-006 -3.81779e-006 -9.04359e-006 -37.9322 77.0658 37.4051 -1.1867e-006 1.19096e-006 3.00001 -8.02931 -4.95097 -0.69754 178.695 2.23882 1.74005 180 7.0153e-015 178.853 178.634 10.1639 179.515 7.09568e-006 -4.46019e-006 0.150288 -18.9099 68.1445 19.6453 8.12711 25.2332 -3.48374 -174.47 1.90654 -1.20991 4.54188e-006 -4.6773e-006 -1.17125 -0.927885 -11.7832 0.269448 -6.63714e-007 -6.38419e-006 -0.203284 19.2322 68.5172 -19.9959 -8.13649 25.2327 3.48774 
42.4214 96.6129 -2.45822 1.18006 -3.23668 5.07192 -0.0173522 0.137878 -0.269221 -0.0305906 4.27704 -0.530075 -0.0242561 5.9221 -0.530186 -18.296 -1.46005 -3.82115 12.2293 12.5545 -6.74666 61.9091 -4.31487 -2.89542 102.548 11.0631 -44.5378 1.56578e-006 -8.10406e-007 4.8495e-006 24.6733 82.8363 -28.063 2.6569e-006 -5.07864e-006 -3.00971 8.03006 -4.95102 0.697541 -63.8474 -4.43415 3.0978 -103.067 18.9049 38.1843 3.36317e-006 -3.81779e-006 -9.04359e-006 -37.9505 77.0681 37.4226 -1.1867e-006 1.19096e-006 3.00001 -8.02931 -4.95097 -0.69754 178.661 2.33805 1.75998 180 7.01531e-015 178.854 178.614 10.2314 179.516 7.09568e-006 -4.46019e-006 0.151173 -18.9122 68.1472 19.6482 8.12711 25.2332 -3.48374 -174.491 2.05291 -1.19289 4.54188e-006 -4.6773e-006 -1.17122 -0.920193 -11.9215 0.272659 -6.63714e-007 -6.38419e-006 -0.203762 19.2151 68.4979 -19.9779 -8.13649 25.2327 3.48774 
42.4043 96.6076 -2.46838 1.20072 -3.17655 5.13418 -0.016478 0.134749 -0.27095 -0.028902 4.27091 -0.534146 -0.0225158 5.91597 -0.534288 -18.142 -1.59877 -3.74367 11.9672 12.6663 -6.632 61.8968 -4.33915 -2.90874 102.516 11.0465 -44.3646 1.56578e-006 -8.10406e-007 4.8495e-006 24.4854 82.795 -27.8699 2.6569e-006 -5.07864e-006 -3.00971 8.03006 -4.95102 0.697541 -63.8423 -4.41875 3.08886 -103.078 18.9694 38.2095 3.36317e-006 -3.81779e-006 -9.04359e-006 -37.9679 77.0705 37.4392 -1.1867e-006 1.19096e-006 3.00001 -8.02931 -4.95097 -0.69754 178.627 2.43892 1.78 180 7.01531e-015 178.856 178.594 10.3 179.518 7.09568e-006 -4.46019e-006 0.15204 -18.9139 68.1492 19.6504 8.12711 25.2332 -3.48374 -174.513 2.1994 -1.17365 4.54188e-006 -4.6773e-006 -1.17117 -0.91083 -12.0573 0.276076 -6.63714e-007 -6.38419e-006 -0.204148 19.1979 68.4784 -19.9598 -8.13649 25.2327 3.48774 
42.4161 96.6107 -2.48005 1.22114 -3.11588 5.19541 -0.0156213 0.131533 -0.272757 -0.02725 4.26461 -0.53838 -0.0208102 5.90967 -0.538554 -17.9909 -1.73921 -3.66738 11.7084 12.779 -6.51889 61.8835 -4.3635 -2.92203 102.489 11.0321 -44.1913 1.56578e-006 -8.10406e-007 4.8495e-006 24.3019 82.75 -27.6789 2.6569e-006 -5.07864e-006 -3.00971 8.03006 -4.95102 0.697541 -63.8381 -4.40399 3.08036 -103.088 19.0332 38.2333 3.36317e-006 -3.81779e-006 -9.04359e-006 -37.9845 77.0728 37.4552 -1.1867e-006 1.19096e-006 3.00001 -8.02931 -4.95097 -0.69754 178.593 2.54094 1.80008 180 7.01531e-015 178.857 178.573 10.3693 179.519 7.09568e-006 -4.46019e-006 0.152894 -18.9153 68.1507 19.6523 8.12711 25.2332 -3.48374 -174.537 2.34598 -1.15285 4.54188e-006 -4.6773e-006 -1.17111 -0.900293 -12.1913 0.279639 -6.63714e-007 -6.38419e-006 -0.204471 19.1806 68.4588 -19.9415 -8.13649 25.2327 3.48774 
42.4349 96.6074 -2.49402 1.24138 -3.05491 5.25606 -0.0147746 0.128267 -0.274607 -0.0256195 4.25821 -0.542708 -0.019125 5.90327 -0.542913 -17.8413 -1.88063 -3.59179 11.4515 12.892 -6.40665 61.8695 -4.3879 -2.93532 102.463 11.019 -44.018 1.56578e-006 -8.10406e-007 4.8495e-006 24.122 82.7027 -27.4904 2.6569e-006 -5.07864e-006 -3.00971 8.03006 -4.95102 0.697541 -63.8345 -4.38959 3.07211 -103.098 19.0967 38.2564 3.36317e-006 -3.81779e-006 -9.04359e-006 -38.0008 77.0751 37.4708 -1.1867e-006 1.19096e-006 3.00001 -8.02931 -4.95097 -0.69754 178.559 2.64361 1.82019 180 7.01532e-015 178.858 178.553 10.4391 179.52 7.09568e-006 -4.46019e-006 0.15374 -18.9165 68.1519 19.6538 8.12711 25.2332 -3.48374 -174.56 2.49262 -1.13117 4.54188e-006 -4.6773e-006 -1.17105 -0.889077 -12.3243 0.283288 -6.63714e-007 -6.38419e-006 -0.204758 19.1633 68.4392 -19.9233 -8.13649 25.2327 3.48774 
42.3876 96.5829 -2.60279 1.26147 -2.99386 5.31657 -0.0139306 0.12499 -0.276468 -0.0239951 4.25178 -0.547059 -0.0174456 5.89684 -0.547296 -17.6917 -2.02232 -3.51638 11.1947 13.0052 -6.29457 61.8554 -4.4123 -2.9486 102.438 11.0058 -43.8447 1.56578e-006 -8.10406e-007 4.8495e-006 23.945 82.6548 -27.3044 2.6569e-006 -5.07864e-006 -3.00971 8.03006 -4.95102 0.697541 -63.8311 -4.37527 3.06392 -103.107 19.16 38.2793 3.36317e-006 -3.81779e-006 -9.04359e-006 -38.0169 77.0774 37.4864 -1.1867e-006 1.19096e-006 3.00001 -8.02931 -4.95097 -0.69754 178.525 2.74644 1.84033 180 7.01532e-015 178.859 178.532 10.5089 179.521 7.09568e-006 -4.46019e-006 0.154585 -18.9176 68.153 19.6554 8.12711 25.2332 -3.48374 -174.584 2.63927 -1.10926 4.54188e-006 -4.6773e-006 -1.17099 -0.877679 -12.457 0.286963 -6.63714e-007 -6.38419e-006 -0.205035 19.146 68.4195 -19.905 -8.13649 25.2327 3.48774 
